<?xml version="1.0" encoding="iso-8859-1"?>
<!-- Generator: Adobe Illustrator 19.0.0, SVG Export Plug-In . SVG Version: 6.00 Build 0)  -->
<svg version="1.1" id="Capa_1" xmlns="http://www.w3.org/2000/svg" xmlns:xlink="http://www.w3.org/1999/xlink" x="0px" y="0px"
	 viewBox="0 0 465.199 465.199" style="enable-background:new 0 0 465.199 465.199;" xml:space="preserve">
<g>
	
		<linearGradient id="SVGID_1_" gradientUnits="userSpaceOnUse" x1="232.5997" y1="477.887" x2="232.5997" y2="-11.153" gradientTransform="matrix(1 0 0 -1 0 467.194)">
		<stop  offset="0" style="stop-color:#00EFD1"/>
		<stop  offset="1" style="stop-color:#00ACEA"/>
	</linearGradient>
	<path style="fill:url(#SVGID_1_);" d="M392.596,335.397c-18.372-0.192-34.44,12.336-38.734,30.2h-11.266
		c-11.028,0-20-9.376-20-20.4v-61.338c3.858-6.057,7.046-12.516,9.507-19.262h14.668c42.83,0.049,77.59-34.633,77.639-77.463
		c0.031-27.022-14.006-52.111-37.05-66.223c0.254-2.964,0.434-5.954,0.434-9.2C387.814,50.035,337.833,0.02,276.157,0
		c-21.739-0.007-43.007,6.331-61.196,18.236c-15.485,10.191-28.228,24.032-37.106,40.305c-3.525-0.376-7.067-0.564-10.611-0.563
		c-19.599-0.029-38.656,6.437-54.19,18.388c-14.045,10.778-24.72,25.342-30.77,41.98c-6.897,3.629-13.213,8.268-18.74,13.762
		c-30.321,30.279-30.355,79.405-0.076,109.726c14.566,14.587,34.339,22.777,54.953,22.763h14.668
		c2.461,6.746,5.649,13.205,9.507,19.262v61.338c0,11.028-8.972,20.4-20,20.4H111.33c-4.294-17.864-20.362-30.392-38.734-30.2
		C50.49,335.41,32.58,353.34,32.593,375.446c0.013,22.106,17.943,40.016,40.049,40.003c18.179-0.01,34.068-12.27,38.689-29.852
		h11.266c22.056,0,40-18.348,40-40.4v-37.842c16.759,14.766,37.762,23.847,60,25.942v53.163c-21.39,5.523-34.253,27.34-28.73,48.73
		c5.523,21.39,27.34,34.253,48.73,28.73s34.253-27.34,28.73-48.73c-3.638-14.09-14.64-25.092-28.73-28.73v-53.163
		c22.238-2.094,43.241-11.175,60-25.941v37.841c0,22.056,17.944,40.4,40,40.4h11.266c5.62,21.379,27.506,34.155,48.885,28.535
		c21.379-5.62,34.155-27.506,28.535-48.885C426.661,347.667,410.774,335.408,392.596,335.397L392.596,335.397z M72.596,395.197
		c-11.046,0-20-8.954-20-20s8.954-20,20-20s20,8.954,20,20C92.583,386.237,83.636,395.184,72.596,395.197z M118.421,244.597
		c-31.808,0.026-57.614-25.738-57.64-57.546c-0.013-15.309,6.07-29.993,16.905-40.808c4.935-4.875,10.686-8.847,16.993-11.737
		l4.023-1.877l1.306-4.242c9.132-29.681,36.781-50.409,67.236-50.409c4.803-0.019,9.597,0.427,14.314,1.332l7.72,1.544l3.312-7.143
		c7.29-15.776,18.844-29.201,33.357-38.762c42.375-27.71,99.19-15.823,126.9,26.552c9.762,14.928,14.957,32.379,14.949,50.215
		c-0.066,4.17-0.346,8.334-0.839,12.475l-0.814,8.135l6.163,3.083c28.502,14.105,40.172,48.645,26.067,77.147
		c-9.711,19.622-29.709,32.039-51.602,32.041h-9.375c0.894-5.628,1.352-11.316,1.371-17.014
		c0-58.638-47.535-106.173-106.173-106.173s-106.173,47.535-106.173,106.173c0.02,5.698,0.48,11.386,1.375,17.014L118.421,244.597z
		 M252.596,425.197c0,11.046-8.954,20-20,20c-11.046,0-20-8.954-20-20s8.954-20,20-20
		C243.636,405.21,252.583,414.157,252.596,425.197z M232.596,313.77c-47.592,0-86.173-38.581-86.173-86.173
		s38.581-86.173,86.173-86.173s86.173,38.581,86.173,86.173C318.715,275.167,280.166,313.716,232.596,313.77z M392.596,395.197
		c-11.046,0-20-8.954-20-20s8.954-20,20-20s20,8.954,20,20C412.583,386.237,403.636,395.184,392.596,395.197z"/>
	
		<linearGradient id="SVGID_2_" gradientUnits="userSpaceOnUse" x1="232.596" y1="477.887" x2="232.596" y2="-11.153" gradientTransform="matrix(1 0 0 -1 0 467.194)">
		<stop  offset="0" style="stop-color:#00EFD1"/>
		<stop  offset="1" style="stop-color:#00ACEA"/>
	</linearGradient>
	<path style="fill:url(#SVGID_2_);" d="M239.409,182.222c-3.839-3.573-9.787-3.573-13.626,0l-31.475,29.293
		c-4.043,3.763-4.27,10.09-0.508,14.134c3.763,4.043,10.091,4.27,14.134,0.507l14.662-13.646v53.141c0,5.523,4.477,10,10,10
		s10-4.477,10-10V212.51l14.662,13.646c4.043,3.763,10.371,3.536,14.134-0.507c3.763-4.043,3.535-10.371-0.508-14.134l0,0
		L239.409,182.222z"/>
</g>
<g>
</g>
<g>
</g>
<g>
</g>
<g>
</g>
<g>
</g>
<g>
</g>
<g>
</g>
<g>
</g>
<g>
</g>
<g>
</g>
<g>
</g>
<g>
</g>
<g>
</g>
<g>
</g>
<g>
</g>
</svg>
